<svg width="20" height="20" viewBox="0 0 20 20" fill="none" xmlns="http://www.w3.org/2000/svg">
<path fill-rule="evenodd" clip-rule="evenodd" d="M18.5514 0H1.50762C0.692381 0 0 0.644762 0 1.43905V18.56C0 19.3552 0.454286 20 1.26952 20H18.3133C19.1295 20 20 19.3552 20 18.56V1.43905C20 0.644762 19.3676 0 18.5514 0Z" fill="white"/>
<path fill-rule="evenodd" clip-rule="evenodd" d="M18.5514 0H1.50762C0.692381 0 0 0.644762 0 1.43905V18.56C0 19.3552 0.454286 20 1.26952 20H18.3133C19.1295 20 20 19.3552 20 18.56V1.43905C20 0.644762 19.3676 0 18.5514 0ZM7.61905 7.61905H10.3114V8.99143H10.341C10.7514 8.25143 11.9638 7.5 13.4629 7.5C16.34 7.5 17.1429 9.02762 17.1429 11.8571V17.1429H14.2857V12.3781C14.2857 11.1114 13.78 10 12.5971 10C11.1609 10 10.4762 10.9724 10.4762 12.5686V17.1429H7.61905V7.61905ZM2.85714 17.1429H5.71429V7.61905H2.85714V17.1429ZM6.07143 4.28571C6.07154 4.52018 6.02545 4.75238 5.93581 4.96904C5.84618 5.18569 5.71473 5.38257 5.549 5.54843C5.38326 5.71428 5.18648 5.84586 4.96989 5.93566C4.7533 6.02545 4.52114 6.0717 4.28667 6.07177C4.0522 6.07183 3.82001 6.0257 3.60337 5.93602C3.38673 5.84634 3.18988 5.71486 3.02405 5.5491C2.85823 5.38333 2.72668 5.18652 2.63693 4.96991C2.54717 4.7533 2.50097 4.52114 2.50095 4.28667C2.50091 3.81325 2.68892 3.3592 3.02362 3.02439C3.35831 2.68958 3.8123 2.50142 4.28571 2.50129C4.75913 2.50116 5.21321 2.68908 5.54809 3.02372C5.88297 3.35835 6.07121 3.8123 6.07143 4.28571Z" fill="#323332"/>
</svg>
