<svg width="22" height="16" viewBox="0 0 22 16" fill="none" xmlns="http://www.w3.org/2000/svg">
<path d="M21.54 2.70481C21.2865 1.75766 20.5421 1.01334 19.5949 0.759798C17.88 0.299805 11 0.299805 11 0.299805C11 0.299805 4.12002 0.299805 2.405 0.759798C1.45785 1.01334 0.713533 1.75766 0.459993 2.70481C1.37693e-07 4.41982 0 8.00016 0 8.00016C0 8.00016 1.37693e-07 11.5805 0.459993 13.2955C0.713533 14.2427 1.45785 14.987 2.405 15.2405C4.12002 15.7005 11 15.7005 11 15.7005C11 15.7005 17.88 15.7005 19.5949 15.2405C20.5421 14.987 21.2865 14.2427 21.54 13.2955C22 11.5805 22 8.00016 22 8.00016C22 8.00016 21.9982 4.41982 21.54 2.70481Z" fill="#191919"/>
<path d="M8.79883 11.2999L14.5143 8.00034L8.79883 4.70068V11.2999Z" fill="white"/>
</svg>
